<?xml version="1.0" encoding="utf-8" ?>
<svg baseProfile="full" height="300mm" version="1.1" viewBox="0,0,200,300" width="200mm" xmlns="http://www.w3.org/2000/svg" xmlns:ev="http://www.w3.org/2001/xml-events" xmlns:xlink="http://www.w3.org/1999/xlink"><defs /><rect fill="#222222" height="300" width="200" x="0" y="0" /><text fill="#FFFFFF" style="font-size:12px; font-family:Arial; font-weight:bold;" x="10" y="20">wangsitu</text><text fill="#FFFFFF" style="font-size:4px; font-family:Arial" x="10" y="280">ATHLETE</text><text fill="#FFFFFF" style="font-size:9px; font-family:Arial" x="10" y="290">situ</text><text fill="#FFFFFF" style="font-size:4px; font-family:Arial" x="120" y="280">STATISTICS</text><text fill="#FFFFFF" style="font-size:3px; font-family:Arial" x="120" y="285">Number: 6</text><text fill="#FFFFFF" style="font-size:3px; font-family:Arial" x="120" y="290">Weekly: 2.0</text><text fill="#FFFFFF" style="font-size:3px; font-family:Arial" x="141" y="285">Total: 173.5 km</text><text fill="#FFFFFF" style="font-size:3px; font-family:Arial" x="141" y="290">Avg: 28.9 km</text><text fill="#FFFFFF" style="font-size:3px; font-family:Arial" x="167" y="285">Min: 21.4 km</text><text fill="#FFFFFF" style="font-size:3px; font-family:Arial" x="167" y="290">Max: 50.3 km</text><polyline fill="none" points="86.0,82.74435338457988 85.99007580976468,83.56854622635001 85.87098552723182,84.10252701276477 85.80151619570097,84.2882588504799 85.71219848375767,84.40434108921181 85.5335630599875,84.78741160482605 85.42439696763176,84.98475043893268 85.23583735350985,85.44907570598298 84.90833907650085,86.12234384960902 84.76940041355556,86.55184033254773 84.6999310820247,87.16706209267431 84.7396278429078,87.6313781159115 84.84879393520532,88.18855474780867 84.96788421779638,88.52518092391256 85.35492763610091,89.33772260740079 85.54348725016462,89.86006765228376 85.97022742935224,90.68420699526177 85.96030323911691,90.78867492019344 85.85113714681938,90.83510507713072 85.14651964162476,91.02082550818886 84.83886974497,91.05564805396716 84.49152308754856,91.17172312674666 83.09221226739464,91.38065794803697 82.95327360439114,91.38065794803697 82.85403170227073,91.42708785425202 82.91357684356626,91.68245198694058 82.95327360439114,91.69405943338643 82.63569951755926,91.43869532772078 82.72501722950255,91.25297560457693 82.51660923502641,91.4154803795318 82.16926257754676,91.49673267667822 82.03032391454326,91.76370408623916 82.08986905578058,91.75209664715658 82.15933838731144,91.79852639605815 82.14941419707611,91.83334869483224 81.92115782218752,92.01906743485597 81.71274982771138,92.12353408781928 81.3554789799964,92.25121541742556 80.0057891109609,92.61104381900077 79.08283942111302,92.77354658101103 78.32860096479999,92.86640519398497 77.18731909029884,92.94765641583217 76.55217091657687,92.9708710395862 76.28421778080519,92.99408565843623 76.01626464503352,92.99408565843623 75.71853893867228,92.95926372831309 75.1230875258334,92.98247834963695 74.79558924876619,93.04051488135156 72.82067539624404,93.13337326824694 72.55272226053057,93.19140972009336 71.81833218468819,93.22623157648923 71.44121295656078,93.27266070108453 69.24796691938536,93.4003406924603 68.35478980012704,93.37712615963392 67.42191592004383,93.46998426143546 65.95313576841727,93.56284228455479 65.39738111646147,93.66730746656685 65.32791178498883,93.70212917179742 64.81185389385791,93.82980866298749 63.99807029636577,94.08516719931504 62.99572708475171,94.34052514088398 61.646037215716206,94.50302533950162 61.41778084082762,94.47981104014616 61.25899379741168,94.49141819045326 61.03073742246488,94.53784677931253 60.60399724327726,94.57266820804216 60.256650585797615,94.63070389802306 59.651274982781615,94.67713242791069 59.28407994488953,94.73516806259431 59.06574776011985,94.80481078365119 57.755754651967436,94.97891739282932 57.12060647830367,95.11820248109143 56.96181943488773,95.11820248109143 56.564851826347876,95.17623788235505 54.897587870422285,95.5128426036681 54.51054445205955,95.61730592776439 53.93494141974952,95.71016213230905 53.260096485202666,95.86105329693964 52.74403859407175,95.94230229956884 52.52570640936028,96.00033726459515 51.80124052375322,96.13962105531391 51.374500344565604,96.18604894620512 51.146243969677016,96.17444197533769 50.89813921431778,96.22086985151691 50.65995864919387,96.27890466908138 50.49124741560081,96.34854640963749 50.342384562361985,96.46461587893282 50.22329427982913,96.39497421211126 48.87360441079363,96.58068522532994 48.43694004131248,96.58068522532994 48.168986905540805,96.65032677417912 47.901033769827336,96.6851475320509 46.00551343901316,96.87085805380048 45.707787732593715,96.87085805380048 43.92143349413527,97.0217476211401 42.968711233581416,97.13781637776992 42.41295658162562,97.16103011435189 42.01598897308577,97.14942324669391 41.678566505841445,97.20745757278928 40.43804272916168,97.30031243068515 40.37849758786615,97.27709872355626 40.33880082698306,97.1958507100062 40.31895244657062,96.88246495096246 40.00137835973874,94.61909676249343 39.93190902826609,93.84141588209604 39.783046175027266,92.88961983494664 39.69372846308397,92.05388966356986 39.425775327312294,90.11543543507287 39.39600275666453,89.68595291386737 39.30668504477944,89.30289951592567 39.098277050303295,88.03765302299144 38.91964162647491,87.53851506862702 38.8700206753565,87.30635710617207 38.67153687111568,87.03937484150083 38.03638869745191,86.34289630778949 37.609648518264294,86.0178714776921 37.28215024119709,85.8205345035094 36.94472777395276,85.65802143447218 36.319503790466115,85.44907570598298 36.13094417640241,85.35621080994315 35.78359751892276,85.2865620862649 35.30723638867494,85.12404822558165 35.09882839414058,85.07761564970133 31.625361819402315,84.02126923480682 31.278015161980875,83.92840312911721 30.623018607788254,83.70784581272164 30.573397656786256,83.68462922731123 29.124465885572135,83.28994652252004 27.72515506541822,82.94169589688681 27.566368022060487,82.86043725835043 27.437353549234103,82.82561210915446 27.169400413520634,82.81400372360804 27.0602343211649,82.76757016914053 26.742660234333016,82.7095281984075 26.27622329426231,82.66309459973127 25.740317022718955,82.66309459973127 25.333425224001985,82.68631140155048 25.105168848996982,82.63987779300078 25.015851137111895,82.67470300127025 24.608959338336717,82.75596177747502 23.89441764296498,82.86043725835043 22.961543762881774,83.092604637146 21.611853893846273,83.39442149442038 20.807994486531243,83.49889636677108 20.053756030334625,83.55693791947851 19.914817367272917,83.53372130210482 19.795727084740065,83.56854622635001 19.309441764315125,83.53372130210482 18.9720192970708,83.52211299154442 18.505582356941886,83.46407142038515 18.277325982111506,83.46407142038515 17.96967608545674,83.41763814133446 16.07415575464256,83.3363798556602 15.71688490692759,83.28994652252004 15.210751206032,83.27833818615181 14.863404548552353,83.22029648590978 14.694693314959295,83.22029648590978 14.58552722260356,83.24351316966931 14.069469331472646,83.23190482840437 14.01984838041244,83.20868814215646 14.0,83.17386310359143 14.0,83.12742970157706 14.069469331472646,82.94169589688681 14.059545141237322,82.74435338457988 14.327498277067207,80.92182044824585 14.605375603016,79.4475200402012 14.694693314959295,79.13408353890554 14.704617505136412,78.83225494968792 14.952722260495648,77.59010546771606 15.091660923499148,76.69621348453074 15.409235010272823,75.1289826696011 15.845899379695766,72.59814781088062 15.925292901461944,72.27308221704152 16.36195727082668,69.75379116804106 16.42150241212221,69.56803469648003 16.451274982769974,69.26617975852423 16.778773259778973,67.76850257570186 17.14596829767106,66.87453046954761 17.235286009614356,66.75842966084019 17.364300482382532,66.4797872180352 18.049069607106503,65.29554893030581 18.4162646450568,64.77308679288399 19.190351481724065,63.54238835569413 19.517849758733064,62.903812964206736 19.756030323915184,62.33489720743819 20.004135079216212,61.47571270946355 20.3713301171083,59.28127847531141 20.520192970347125,58.57301253996411 20.579738111642655,57.99246327611763 20.827842866943683,56.6920217598672 21.691247415554244,53.98658949285891 22.008821502386127,52.593207748075656 22.167608545802068,51.513324703300896 22.256926257745363,51.19980827663676 22.296623018570244,50.66566711233463 22.475258442456834,49.53931742309942 22.48518263263395,49.56254124503175 22.634045485872775,48.42456818075152 22.772984148818068,47.70461993114441 22.79283252923051,47.379480460593186 22.842453480348922,47.27497114001744 22.941695382469334,47.17046171976108 23.457753273600247,46.4505052254608 24.251688490679953,45.347336898208596 24.53949000686407,44.51124402601272 24.57918676774716,44.313832277395704 25.035699517524336,42.90871484384115 25.08532046864275,42.79258862946881 25.115093039290514,42.76936337182997 25.214334941410925,42.73452547609486 25.641075120598543,42.69968756931485 25.90902825637022,42.74613810925803 26.236526533437427,42.85065175206546 26.45485871809069,42.87387699244573 26.96099241898628,42.85065175206546 27.25871812540572,42.90871484384115 27.98318401101278,42.93194007194688 28.04272915230831,42.943552684133465 28.618332184676547,42.93194007194688 28.906133700860664,42.955165295083134 29.31302549963584,42.93194007194688 29.571054445172194,42.96677790483227 29.83900758094387,42.955165295083134 30.226050999306608,42.97839051336632 30.702412129554432,43.07129133705894 30.980289455503225,43.07129133705894 31.22839421086246,43.106129125611915 31.38718125433661,43.1990298409728 32.250585802830756,44.174482593516586 32.64755341142882,44.54608135647868 33.034596829733346,45.0105780369413 33.12391454167664,45.09186475344177 33.25292901444482,45.35894925426692 33.2926257752697,45.53313444735977 33.27277739485726,45.60280844699446 33.36209510680055,46.717586412683886 33.41171605786076,47.89041348089813 33.35217091656523,48.45940426631569 33.20330806338461,49.15612365089328 33.094141971028876,49.4928697645737 32.77656788419699,50.71211427354865 31.674982770520728,52.39581056741008 31.536044107517228,52.65126567467814 31.317711922805756,53.18539715553925 31.22839421086246,53.533742370127584 30.77188146102708,56.4133537120797 30.752033080614638,56.796522095064574 30.940592694678344,59.78054515337135 30.95051688485546,60.070815431790834 30.920744314265903,60.41913875064347 31.000137835915666,60.57007851151866 31.039834596798755,60.767460961935285 31.39710544445552,61.4641020619747 31.684906960697845,62.43939215975843 31.89331495517399,62.799318454854074 32.06202618882526,63.03152834028151 32.3597518952447,63.310179553074704 32.76664369396167,63.60044047943666 33.014748449320905,63.72815504344908 34.39421088900417,64.33189460318681 34.89042039972264,64.6337631354254 35.148449345258996,64.76147649483755 37.01419710542541,65.4813126454319 37.37146795314038,65.66707604558906 37.63942108891206,65.84122894717439 38.02646450721659,66.22436435629061 38.23487250175094,66.53783778537763 38.433356305991765,66.79325991635415 38.88986905582715,67.73367263021646 39.058580289478414,68.00070192944258 39.37615437625209,68.40704961441224 39.64410751208197,68.66246738794143 41.68849069607677,70.12530316648918 42.422880771919154,70.70578814232431 42.71068228810327,70.87993303543772 42.91909028252121,70.97281019858201 43.36567884212127,71.1005161693829 43.713025499659125,71.23983160415082 44.36802205373533,71.41397564852377 44.48711233632639,71.43719483353925 45.36044107511407,71.75065334957617 45.40013783593895,71.84352977469098 45.39021364576183,71.90157750046637 45.01309441763442,73.60816689605417 44.824534803570714,74.33955421539576 44.79476223292295,74.83875228131365 44.824534803570714,74.94323530961992 44.864231564395595,75.01289060650015 44.93370089592645,75.07093665340653 45.44975878705736,75.23346542123181 46.00551343901316,75.50047644501319 46.3032391454326,75.68622286047321 46.67043418332469,75.98806011415581 46.9582356994506,76.28989653650206 47.176567884220276,76.6729954138209 47.464369400346186,77.13735589395947 47.623156443820335,77.45079810578318 47.742246726411395,77.56688758634846 47.86133700894425,77.63654121568106 47.99035148171242,77.67136801374 48.188835286011454,77.62493228053063 49.32019297039369,76.6149502154658 51.03707787732128,74.46725626266561 51.47374224674422,74.01449378720281 51.7416953825159,73.79391651896003 51.96002756722737,73.52690133701981 52.098966230172664,73.28310429835983 52.763886974484194,72.31952021805773 52.85320468642749,72.26147271368973 52.962370778783225,72.22664419632929 53.16085458302405,72.22664419632929 53.31964162643999,72.2846917191564 53.508201240503695,72.2846917191564 53.63721571333008,72.35434870589961 53.9746381805744,72.44722461938363 54.917436250834726,72.69102351770562 55.542660234321374,72.91160300597403 55.96940041350899,72.95804073637555 57.20992419018876,73.28310429835983 59.72074431425426,73.67782304154389 60.61392143345438,73.87518187999376 60.77270847692853,73.86357254637551 61.308614748413675,73.93322852950223 61.72543073736597,74.02610310483578 62.14224672643468,74.06093105029868 62.430048242618795,74.1189776014362 62.90640937280841,74.16541482019966 63.53163335629506,74.26989849054371 63.87898001377471,74.21185201931803 64.36526533425786,74.2002427214029 65.76457615441177,74.09575898464391 66.93563059956068,73.87518187999376 67.42191592004383,73.85196321154217 67.84865609923145,73.71265109768137 68.91054445208283,73.48046384766349 68.97008959337836,73.45724509559659 69.03955892490922,73.39919819393981 69.37698139215354,73.32954187133146 69.90296347346157,73.19022909332853 70.09152308752527,73.16701027975796 70.64727773948107,73.16701027975796 70.99462439701892,73.24827610571083 71.7786354238633,73.29471369344537 72.06643694004742,73.36437003818719 72.31454169540666,73.36437003818719 73.00923501030775,73.45724509559659 75.06354238459608,73.51529196654155 75.23225361818913,73.49207322185248 75.34141971054487,73.50368259479728 75.68876636802452,73.42241695828852 75.94679531361908,73.41080757673626 76.10558235697681,73.36437003818719 76.69110957958037,73.23666670564126 76.99875947623514,73.21344790195144 77.11784975876799,73.259885504478 77.39572708471678,73.20183849828027 78.52708476915723,73.0741349763266 78.94390075810952,73.09735380960046 79.34086836664937,73.0741349763266 80.17450034455396,72.95804073637555 80.50199862162117,72.87677469523624" stroke="#ffff00" stroke-linecap="round" stroke-linejoin="round" stroke-width="0.5"><title>2024-04-18 21.4km</title><desc>11209586057</desc></polyline><polyline fill="none" points="114.0,75.35772699828522 114.6274843235442,74.82960265924339 115.2014029121201,74.07769112585083 115.369752364757,73.87180942019768 115.40036135617993,73.86285803030478 115.54575406527147,73.66592721291818 115.5916675523913,73.64802438858896 115.98193219257519,73.14674376720359 116.45637155912118,72.48433267063228 116.88489743863465,72.0367546657144 117.1986396003922,71.75030349836743 117.30577107027057,71.75925511205423 117.3516845573613,71.79506155729905 117.47412052293657,71.9203839961192 117.5200340100273,72.01885149622831 117.68073121481575,72.11731888155191 117.89499415454338,72.32320486199023 119.03517908384674,73.05722905758012 119.88457859496702,73.51375308515708 120.23658199596684,73.63907297501282 120.55797640557284,73.79124687708827 120.90997980657266,73.88971219712403 120.98650228508632,73.9613232668853 121.04772026784485,73.94342050515115 121.77468381338986,74.14930203633412 121.93538101820741,74.1672047544489 121.98894675311749,74.15825339586445 122.01955574451131,74.1940588245343 122.11138271866366,74.22091288611409 122.2414709321165,74.22091288611409 122.37921139335958,74.26566963640653 123.10617493890459,74.35518306591985 123.3740036135714,74.40889107810654 123.78722499735886,74.39098841117084 123.87905197151122,74.40889107810654 124.14688064620714,74.38203707626235 124.37644808163168,74.39098841117084 124.4070570730255,74.41784241014102 124.44531831226777,74.39993974509707 124.52949303857167,74.39993974509707 124.67488574769231,74.33728038760455 125.08045488366042,74.32832904702809 125.6926347114495,74.26566963640653 126.03698586460087,74.14930203633412 126.18237857372151,74.15825339586445 126.37368476993288,74.05083701878175 126.75629716232652,73.92551773959713 126.91699436711497,73.80019827454817 127.13890955472016,73.71068425717385 127.70517589544761,73.28996710532374 128.07248379214434,72.94981128090876 128.30970347541734,72.67231472575804 128.5545754065388,72.34110796701862 128.59283664578106,72.22473771656223 128.83005632908316,71.75925511205423 129.09788500374998,70.56868216818839 129.10553725156933,70.29117779304943 129.09023275590152,70.19270827959554 129.10553725156933,70.1569011553147 129.09788500374998,70.04947969145724 129.06727601235616,69.95100989631464 128.81475183335715,69.72721448048833 129.0596237645077,69.61084063001181 128.9601445424487,69.11848795053083 128.84536082475097,68.76936340290558 128.40918269741815,67.90997375477309 128.08778828784125,67.39075493955897 127.95004782659817,67.10428802042588 127.6210011690855,66.60296857461071 127.58273992984323,66.47763824834692 127.6210011690855,66.42392519448185 128.17196301411605,65.98526730947196 128.40918269741815,65.75250913944183 128.67701137208496,65.54660714678903 128.8224040812056,65.46603666523151 128.88362206402235,65.3765138178278 128.98310128599405,65.35860923695873 129.19736422572169,65.19746783840674 129.25092996068997,65.18851552945853 129.6871080880228,64.98261216218816 129.93198001917335,64.90204114272638 130.53650759911397,64.74985122963699 131.1563396747806,64.66032762328541 131.18694866617443,64.67823235214018 131.21755765759735,64.65137525742466 132.54139653523453,64.4275658027691 133.58975449038553,64.22166058075527 135.6405569135968,63.9083255843143 135.9313423318381,63.84565844556346 136.95674354344374,63.711371563142166 137.74492507177638,63.56813198656164 137.89797002871637,63.675561691765324 137.92092677226174,63.72927649311168 137.9438835158071,64.22166058075527 137.98979700286873,64.29327984531119 137.9438835158071,64.45442296859255 137.95153576365556,64.70508943831373 137.99744925074629,65.04527845752455 138.04336273783701,65.08108774827997 138.517802104383,65.0184214795081 138.670847061323,64.97365983049531 139.1299819322012,64.92889815774834 140.17068763950374,64.72299415770249 141.16547985974466,64.66032762328541 141.19608885113848,64.69613707719691 141.2802635774715,65.65403433600295 141.30322032098775,65.75250913944183 141.3797427994723,66.71039442057372 141.42565628656303,66.93419782759156 141.50217876501847,66.9968626753107 144.40238069935003,67.19380903698766 144.73907960465294,67.19380903698766 145.2211712190765,67.14904854056658 145.33595493680332,67.1759048412714 146.98884047192405,67.18485693960974 147.78467424810515,67.22961741706968 148.3509405888035,67.2027611334197 148.9248591774085,67.18485693960974 149.66712721865042,67.21171322892769 152.70506961422507,67.18485693960974 153.37081517695333,67.22066532348254 153.79168880861835,67.2027611334197 154.19725794455735,67.14009643842292 154.6640450632549,66.97895843786682 155.21500690831454,66.7372508607441 155.46753108728444,66.65668151466525 155.75831650546752,66.60296857461071 156.63067276013317,66.51344693197461 157.5412902540411,66.52239910051867 157.83972792010172,66.46868607508804 158.39068976513227,66.41497301550407 159.11765331070637,66.39706865471817 159.29365501119173,66.41497301550407 159.5002657030709,66.36125992175948 159.569135933707,66.37021210643434 160.280794983526,66.2717380230315 160.9082793070993,66.09269394086732 161.2296737166762,66.02107620179595 161.69646083543194,65.94945840197761 162.2244659368589,65.83307934779441 162.40046763737337,65.8151748636883 162.74481879055384,65.74355688934156 162.92847273888765,65.74355688934156 163.23456265279674,65.69879562451388 163.82378573709866,65.59136849222705 163.9003082155541,65.59136849222705 163.97683069403865,65.61822528812627 164.16813689022092,65.7883181304278 164.32118184719002,65.8062226202237 164.3900520778261,65.77936588411103 164.45127006058465,65.68089111196605 164.58135827400838,65.54660714678903 164.66553300034138,65.51975032813789 166.04293761291774,65.4928935009666 167.09129556809785,65.53765487486817 167.84886810503667,65.51079805335758 168.65235412903712,65.40337068199005 169.6012328621582,65.34070465227705 169.67775534064276,65.35860923695873 169.83080029758275,65.31384776817868 170.76437453506514,65.27803857607796 171.28472738870187,65.21537245340005 171.71325326815713,65.2064201464018 172.47082580506685,65.13480165593501 172.74630672764033,65.07213542700629 172.8534381974896,65.12584934037295 173.65692422149004,65.06318310480128 173.78701243491378,65.03632613248192 174.2078860665497,65.00946915159875 174.34562652785098,65.0184214795081 175.00371984270168,64.95575516424287 175.94494632800343,64.93785049419967 176.4576469338208,64.87518411914789 177.4907003932749,64.8214700464232 177.73557232442545,64.75880358507129 178.12583696460933,64.77670829305862 178.79923477527336,64.70508943831373 179.61037304712227,64.65137525742466 179.73280901269754,64.66927998820029 182.1585715803958,64.43651819232764 182.60240195560618,64.48128012595407 183.2757997661829,64.45442296859255 183.39058348393883,64.47232774111035 183.50536720166565,64.58870866987854 183.70432564566727,65.40337068199005 183.8191093633941,66.11059836616914 184.02572005530237,67.02371902440791 184.10224253378692,67.2654257819595 184.23998299503,67.51608391126501 184.46955043045455,68.34862164655351 184.50781166972592,68.38442953718186 184.56902965248446,68.7514595410612 184.75268360087648,69.44075548328692 185.00520777981728,70.56868216818839 185.1888617281511,71.55336775751493 185.31129769372637,71.91143239950179 185.53321288133156,72.86029636269814 185.57147412054474,73.11988936426496 185.60208311193855,73.16464669774723 185.79338930814993,73.99712877902493 185.9005207779992,74.59686885192059 185.86225953875692,74.70428453493514 185.8316505473631,74.98177441744338 185.86991178660537,75.0533845618047 186.0,75.68892193377542 185.96939100863528,75.80528741380112 185.85460729090846,75.89479921247403 185.5408651291218,75.94850624616811 185.4566904028179,75.93955507624196 185.40312466787873,75.89479921247403 185.31129769372637,75.87689686031808 185.15060048890882,75.73367790658085 185.01286002763663,75.4114343733163 184.95929429272655,75.11604338831967 184.9669465406041,74.96387187186338 185.07407801045338,74.78484620758536 185.1888617281511,74.70428453493514 185.31894994157483,74.67743062698719 185.5102561377862,74.71323583570484 185.65564884687774,74.83855394671264 185.8163460516953,75.23240965718287 185.85460729090846,75.37562946041726 185.85460729090846,75.55465387312142 185.77808481245302,75.68892193377542 185.61738760763546,75.81423859792267 185.46434265069547,75.87689686031808 184.92868530133273,75.94850624616811 182.70953342545545,76.1901874753894 181.11786587312235,76.40501465445413 180.68168774578953,76.43186801344564 179.66393878206145,76.34235678362165 179.15889042409253,76.34235678362165 178.39366563930525,76.261796595747 177.87331278566853,76.261796595747 177.4907003932749,76.20808976115222 176.34286321609397,76.11857829433575 175.99085981509415,76.04696905260062 175.6771176533657,76.06487136871874 175.53937719209353,76.02906673267717 175.29450526094297,76.03801789313002 175.06493782554753,75.98431091631937 174.43745350200334,75.71577552032977 173.97831863109604,75.4740929343534 173.4120522903977,75.23240965718287 173.06770113721723,75.07128708840901 172.88404718891252,74.95492059767275 172.47082580506685,74.78484620758536 172.01934318209533,74.55211227702239 170.81794026994612,73.98817740242521 170.19045594646013,73.79124687708827 169.42523116167285,73.69278144231794 166.48676798812812,73.70173285023338 166.25720055270358,73.66592721291818 166.08119885218912,73.69278144231794 165.63736847703694,73.66592721291818 165.4919757679454,73.70173285023338 165.07875438412884,73.64802438858896 164.61961951325065,73.64802438858896 164.40535657352302,73.61221872852911 164.23700712085702,73.68383003345662 163.61717504521948,73.66592721291818 162.58412158573628,73.71068425717385 161.8035923052521,73.69278144231794 161.4133276650391,73.74648987549153 160.88532256352482,73.728587068239 160.617493888858,73.74648987549153 160.34201296628453,73.71963566316845 160.12009777876665,73.73753847234184 159.7374853863439,73.70173285023338 159.28600276334328,73.73753847234184 159.03347858437337,73.74648987549153 158.89573812310118,73.728587068239 158.22234031249536,73.74648987549153 157.87033691149554,73.71963566316845 157.00563290467835,73.728587068239 156.54649803380016,73.71068425717385 155.74301200982882,73.728587068239 155.6435327877698,73.71068425717385 155.38335636095144,73.728587068239 155.36039961740607,73.75544127771718 155.10787543840706,73.71068425717385 154.9165692422539,73.74648987549153 154.6946540546487,73.71068425717385 154.53395684986026,73.73753847234184 154.38856414076872,73.71963566316845 154.0671697311045,73.74648987549153 153.50090339037706,73.67487862367125 152.72037410992198,73.68383003345662 152.55967690513353,73.66592721291818 152.36837070889305,73.68383003345662 151.87862684665015,73.64802438858896 151.50366670213407,73.66592721291818 151.4118397279526,73.63907297501282 151.30470825807424,73.65697580122651 150.98331384846824,73.65697580122651 150.0267828674987,73.63907297501282 149.13912211713614,73.68383003345662 148.34328834095504,73.67487862367125 148.1137209055305,73.63012156045443 147.85354447871214,73.61221872852911 147.74641300883377,73.63012156045443 147.56275906049996,73.60326731114037 146.92762248916551,73.61221872852911 146.76692528431886,73.65697580122651 145.97874375598622,73.5943158928203 144.97629928792594,73.5764130532989 144.9150813051674,73.5674616321412 144.89212456162204,73.50480165733461 144.90742905728985,73.06618053282727 144.87682006589603,72.73497531785688 144.9150813051674,72.53804187191417 144.89212456162204,72.10836730582378 144.92273355301586,71.9203839961192 144.9686470401066,71.90248080195306 145.02221277501667,71.74135188376385 145.04516951856203,71.50860957058467 145.27473695398658,70.6761029719637 145.3053459453804,70.27327425368276 144.9992560314713,70.1569011553147 144.71612286110758,70.16585293779644 144.4100329471985,70.11214222863055 144.34881496443995,70.13899758749176 143.70602614516974,70.03157610086782 143.16271654798766,69.95996170060243 142.51992772880476,69.95100989631464 142.2061855670181,69.9778653063695 142.16792432777584,69.93310628483596 142.13731533641112,69.83463635406952 142.14496758425958,69.70931082164316 142.03018386653275,69.22591059801925 141.93070464453194,68.48290115812415 141.8847911574412,68.39338150745607 141.83122542247293,68.3575736206185 141.75470294401748,68.33966967151355 141.6322669784131,68.37547756593267 141.0047826549271,68.72460374116781 140.72930173241184,68.83202688947495 140.11712190459366,68.948401812675 139.89520671698847,68.97525754139497 139.6197257945023,68.96630563276995 139.076416197262,68.87678649428562 138.670847061323,68.742507608702 138.39536613880773,68.61718045629095 137.74492507177638,68.37547756593267 136.85726432138472,68.15167797685717 135.80125411841436,68.00844592872454 135.303858008323,67.97263787874545 134.65341694123344,67.9905419056231 134.19428207038436,68.01739793883462 133.87288766077836,68.07110997963173 133.41375278990017,68.0979659872537 132.87044319271808,68.1874859509262 132.53374428741517,68.294909782162 131.72260601556627,68.4470933092307 131.3782548624149,68.55451681035629 130.98033797429525,68.64403629031585 130.82729301732616,68.65298823310877 129.6029333616898,68.91259416105459 128.98310128599405,69.01106516646541 128.93718779890332,68.98420944908139 128.88362206402235,68.89469032957277 128.66935912429472,68.3575736206185 128.12604952705442,67.45341944864776 127.98065681793378,67.16695274199446 127.72813263896387,66.79096371540072 127.55213093847851,66.48659042068903 127.49856520353933,66.42392519448185 127.3837814857834,66.37021210643434 127.24604102456942,66.42392519448185 127.03177808484179,66.59401641461591 126.58029546181206,66.96105419658852 126.46551174408523,67.08638380573393 124.53714528644923,68.6708921157915 124.18514188542031,68.93049798876746 123.80252949308488,69.16324740357231 123.14443617814686,69.51237032363133 122.44808162399568,69.79882907805586 122.02720799235976,69.93310628483596 121.10128600281314,70.14794937186525 120.47380167926895,70.24641893753869 120.34371346581611,70.29117779304943 120.29014773093513,70.28222602385358 118.85152513554203,70.58658564496727 118.4842172388453,70.70295815154532 118.1628228292102,70.84618563192635 117.5889042406634,71.15054322162177 117.0455946434522,71.53546448559064 116.5558507811802,72.00094832289324 116.11967265384737,72.52013880864251 115.5916675523913,73.23625838196313 114.48974386230111,74.64162540310645" stroke="#fff300" stroke-linecap="round" stroke-linejoin="round" stroke-width="0.5"><title>2024-04-15 22.8km</title><desc>11187386974</desc></polyline><polyline fill="none" points="19.588575949310325,182.77576388839952 19.595484496298013,182.93738297697564 19.547124667093158,182.97778769559955 19.51949047893868,183.38991460377292 19.443496461521136,183.69698810780392 18.870087057584897,184.86062385640253 18.71809902280802,185.2808212936652 18.649013552436372,185.71717772185366 18.669739193515852,185.85454867356748 18.821727228350937,185.9595968815629 19.015166545344982,186.0 20.16889390029246,185.93535500026337 20.35542467024061,185.8787905805657 20.949559715314535,185.80606483650627 21.446975101862336,185.81414547814347 21.543694760359358,185.7979841939814 21.661140059964964,185.70101641715883 21.69568279516534,185.5394031819451 21.654231512948172,185.17577215128404 21.612780230731005,185.0141578036637 21.543694760359358,183.4545617599506 21.55060330737615,182.95354486698488 21.488426384079503,182.12928411077155 21.509152025158983,181.93533910936094 21.578237495559733,181.87069066601543 23.92023494062596,181.74947468709433 24.231119557196507,181.7171503935242 24.707809302664828,181.60401525817724 25.163773407024564,181.42623113514128 25.875353751704097,181.06258050228644 26.669836660759756,180.6989281362039 28.33479649637593,179.84231793478102 28.71476658328902,179.6887735803175 29.33653581654653,179.41400922740286 30.26918966631638,179.1473252326541 30.738970864738803,179.00186084261077 32.17594864818966,178.67860564951843 33.08096830980503,178.32302335514396 33.40567002049647,178.2422089661777 33.70964609007933,178.2098831866242 34.15870164736407,178.0967428503427 34.421226434758864,178.08057993145485 34.62848284578649,177.99168381639174 34.73211105132941,178.03209115427308 34.77356233354658,178.1048243085097 35.139715326426085,179.84231793478102 35.250252078985795,179.9716182041302 35.38151447268319,180.00394323720684 35.478234131180216,179.97969946367812 35.74075891854591,179.85039920802956 35.94801532960264,179.70493615850137 36.53524182760157,179.16348792554345 38.23474439838901,177.0057381401857 38.76670252013719,176.48043401120958 39.19503243631334,176.1652497975374 39.59572816439322,175.93896289230906 39.865161498775706,175.81773748839623 40.23822303870111,175.7045936042632 40.355668338306714,175.63185816154873 40.39711962052388,175.63993988082075 41.56466406953405,175.37324269249075 42.96019057073863,175.10654457172495 43.76849057388608,174.8398455185088 44.32808288378874,174.59739102458843 45.115657245827606,174.1609709935583 45.467993144644424,173.93467814260657 48.17614358259016,171.71212339365593 48.2521376000077,171.62321985660674 49.233151279069716,170.81500113029324 49.668389742291765,170.56445158608403 50.193439316994045,170.3300657834916 50.90501966170268,170.1522553837858 52.55616240319796,169.89362133508257 55.36794104668661,169.4248448863509 55.5061119874008,169.44909201470728 55.55447181663476,169.5460804510367 55.734094039566116,170.4351353702732 55.98971027985681,171.2433581219375 56.15551540872548,171.4615767965006 56.42494874310796,171.71212339365593 56.67365643638186,171.85760168526758 56.94308977079345,171.94650494913367 58.18662823722116,172.07581860247592 58.65640943561448,172.06773650554533 59.2505444806593,172.13239325687027 59.57524619137985,172.12431116593507 59.95521627832204,172.1485574361359 60.114112860144814,172.1889678692969 62.17976842378266,172.2940348953489 62.60809833998792,172.34252732009918 62.98806842693011,172.33444525144296 63.52002654867829,172.37485558613844 64.10725304670632,172.3506093878823 65.84820689971093,172.37485558613844 66.46306758586434,172.40718383845524 66.98120861352072,172.37485558613844 68.79124793686788,172.38293765050184 69.19885221193545,172.35869145480683 69.71008469257504,172.38293765050184 70.30421973764896,172.36677352090192 71.39577016927069,172.3910197140067 71.9968137613323,172.36677352090192 72.19716162540135,172.33444525144296 72.45277786572115,172.25362451784895 73.27489496296039,171.9060943874938 74.35953684753622,171.76869831782096 75.16783685068367,171.75253405805415 75.49253856137511,171.71212339365593 77.57891976612154,171.57472697454068 78.07633515269845,171.4696589576488 78.2559573756298,171.39691947653773 78.8915437028918,171.2433581219375 79.91400866417098,171.06554985141702 80.64631464992999,170.9847277732406 81.10918730133562,170.47554671126272 81.35098644759273,170.39472400789236 81.31644371239236,170.3300657834916 81.23354114795802,169.46525676266901 81.15063858352369,169.06113703592564 81.0193761898845,168.0669933946774 80.96410781357554,167.35572820268135 80.90193089024979,166.89501879962336 80.83284541990724,166.71720039084175 80.72921721436433,166.13524633578345 80.7637599495647,165.94934341002227 80.68776593214716,165.29463819336524 80.64631464992999,165.1733958697223 80.45287533293595,163.87204945698613 80.40451550370199,163.4436510583837 80.39760695665609,162.77275816410838 80.30779584517586,162.2958548063907 80.30088729815907,161.73003339431307 80.16962490449077,161.08337521028443 79.80347191158216,158.40776867925888 79.6307582357258,157.5994098673109 79.6376667827426,157.4539043708719 79.52713003018289,156.7991261999996 79.3958676365146,156.39493933656922 79.20933686653734,155.10152697187732 79.18170267838286,154.71349898293556 79.06425737877726,154.21229324041633 78.8846351558459,152.6844037859264 78.82936677953694,151.79514185510925 78.52539071001229,149.71746217783948 78.32504284597235,148.4805287019699 78.17305481119547,146.9363548146648 77.97961549423053,145.7478855406298 77.68254797166446,143.20918840660306 77.6272795953846,142.99897402401984 77.53055993688758,141.8670404561708 77.21276677327114,139.77291902159777 77.21276677327114,139.52226742524363 77.14368130287039,139.25544385203102 76.8880650625797,136.9348479139444 76.6324488222599,135.3014940991925 76.61172318115132,135.0103976630853 76.48046078748303,134.47671797427756 76.43210095821996,134.04006817499612 76.16957617088337,132.63306846062915 75.76888044280349,130.75702840977465 75.67906933135237,130.0939342352067 75.47872146734153,129.0588488617359 75.31291633844376,127.3363709229161 75.23692232105532,126.9401146172313 75.20237958591315,126.39020449098462 74.91222061039298,124.02878057245107 74.71878129336983,123.29284239711706 74.34571975347353,122.29810147036187 74.14537188940449,121.50553435635084 73.86212146098842,120.98793505297363 73.21962658668053,120.20344190041214 72.99855308153201,119.83141139413055 72.70839410601184,119.13587122307945 72.59094880640623,118.7800110038661 72.57022316532675,118.58590472861397 72.48041205387563,118.35944678197848 72.18334453133866,118.2866565846416 71.97608812025283,118.33518339058355 71.29905051077367,118.39179795843665 70.22131717324373,118.63443134380213 69.46137699930114,118.77192325226497 68.90869323644438,118.88515169631137 68.77052229573019,118.94176585517562 68.5010889613477,119.13587122307945 68.28001545619918,119.36232686015865 67.71351459927973,120.30049303784472 67.40953852969687,120.85853467728884 67.16773938349797,121.19012269966333 66.99502570761251,121.36804738458159 66.76704365541809,121.5217092778912 66.58742143248674,121.59449638225487 65.40605988938478,121.958430860308 65.09517527281423,122.0393049525228 64.73593082695152,122.04739235703164 64.52176586884889,121.9826930969939 64.30069236372947,121.85329441200156 63.285135949467076,120.81000947971916 63.084788085427135,120.62399593581358 62.90516586249578,120.5107700778899 62.53210432259948,120.32475580288883 61.68926158425165,120.11447824907373 61.46127953205723,119.98507638882438 61.20566329176654,119.75862260416761 61.032949615851976,119.51599280166556 60.99149833363481,119.34615147984005 60.63916243481799,118.52929030508676 60.54935132339597,118.43223690970626 60.383546194498194,118.1168125201657 60.21083251864184,117.96314375438669 60.15556414236198,117.98740726433607 59.58906328541343,117.53448713663238 58.697860717831645,117.00068495519372 57.97937182610622,116.64481475471985 57.502682080667,116.29703090596013 57.2539743873931,116.03012594438042 57.01908378818189,115.97350962010387 56.535485495696776,116.11100633457681 56.15551540872548,116.13527043490467 55.8791735272971,116.11100633457681 55.485386346292216,116.03821398728905 55.146867541538086,116.03821398728905 52.95685813121963,116.27276685720426 52.694333343883045,116.27276685720426 52.57688804430654,116.2323267587708 52.55616240319796,115.41543217033905 52.61833932652371,114.50955861341208 52.611430779477814,114.16176500873553 52.583796591323335,114.08897079734015 52.48707693282631,114.01617651632114 52.259094880660996,114.0 51.68568547669565,114.15367676645837 50.70467179766274,114.34779434379743 50.379970086942194,114.52573502146697 49.834194871160435,114.70367528317001 48.866998286161106,115.26175795121526 48.43866836998495,115.42352027853485 47.93434443633305,115.72277967783157 47.10531879210612,115.77939618859818 46.89115383400349,115.80366039460205 46.79443417547736,115.8602768451965 46.73225725215161,116.01394985602383 46.856611098803114,117.61536592849006 46.82897691070684,117.86608963720937 46.856611098803114,118.98220451430097 46.842794004740426,119.37041454903374 46.77370853436878,119.7505349565472 46.83588545769453,119.92037537621218 46.842794004740426,120.2843178568728 46.6217204995919,120.09021541704715 45.93777434309595,119.95272588939406 45.68906664979295,119.83949903315079 45.081114510656334,119.79097318604909 44.39025980711449,119.65348311802518 43.85830168533721,119.59686948842864 43.40924612802337,119.62113247768866 43.07763587034424,119.7262720084982 42.71148287743563,119.93655063454935 42.41441535492777,120.21961709857715 42.32460424344754,120.24387988937815 41.55084697547136,119.91228774580668 41.4955785991624,119.58069415795035 41.37122475254,119.46746674839233 41.108699965203414,119.402765295883 40.825449536700035,119.53216814590996 40.742546972294804,119.53216814590996 40.231314491684316,119.34615147984005 39.83752731065033,119.24101142405561 39.77535038732458,119.29762531829329 39.60954525845591,119.81523611347802 39.443740129616344,120.1549162852898 39.15358115409617,120.56738302789745 38.82197089638794,120.88279726448673 38.51799482683418,121.09307269626879 38.21401875728043,121.24673514452297 37.88240849957219,121.48127196761925 36.452339263196336,122.36280046236061 35.892746953322785,122.63777056507388 34.85646489801002,123.27666785183828 34.20015292961034,123.6082453432391 33.84090848371852,123.8670365283906 33.30895036199945,124.41696487642912 32.92207172801136,124.6272305481325 32.65263839359977,124.68384043745755 32.41083924737177,124.7000146838036 31.97560078414972,124.68384043745755 31.319288815720938,124.72427604689437 30.966952916933224,124.70810180570697 30.66988539439626,124.74045028469118 30.02048197304248,124.73236316622933 29.06019393511815,124.76471163491078 27.844289656815818,124.76471163491078 27.623216151696397,124.81323431213968 26.980721277359407,124.88601827003731 26.808007601473946,124.88601827003731 26.08951870977762,125.00732471196534 24.6179981912137,125.19332754753123 24.35547340384801,125.24993701600033 23.409002459986368,125.37124287814368 23.20174604890053,125.61385402268934 23.13956912557478,125.72707229228399 23.21556314296322,126.50342160631408 23.326099895552034,127.10993900072208 23.409002459986368,127.87818743236858 23.6162588710431,129.1316287618829 23.602441776980413,129.2448418016138 23.65771015326027,129.41466104565188 23.871875111333793,130.78128784328874 24.044588787248358,132.18023543780873 24.2449366512883,133.17484728983982 24.25875374538009,133.7893977148342 23.9893204109394,135.38235402290593 23.94786912878044,135.754308566502 23.961686222843127,136.0858317375678 24.00313750503119,136.30415108669695 24.113674257620005,136.5871567191425 24.486735797516303,137.2825375218381 24.624906738230493,137.67065427949274 25.308852894755546,140.68657753639127 25.364121271064505,140.88871289578674 25.474658023624215,142.15002542464936 25.626646058401093,143.34663595855818 25.709548622835428,144.64833283422922 25.854628110595513,145.86107388911478 25.985890504263807,151.14031507312757 26.255323838617187,152.85417079332547 26.303683667909354,152.95118034206826 26.338226403080625,153.38772178348881 26.593842643371318,155.14194644048985 27.001446918497095,157.5994098673109 27.098166576994117,158.019757519236 27.31233153512585,158.60985704299674 27.7475699983479,159.6930415418683 28.30025376114645,161.0348756253734 28.41769906078116,161.42287144075817 28.535144360357663,162.02911094956653 28.742400771472603,164.21961620057118 28.783852053660667,165.09256754686794 28.839120429969626,165.8846814165663 28.956565729546128,166.7980269917025 29.06019393511815,169.55416281517682 29.039468294009566,169.78855100229703 29.087828123214422,170.0714323377979 29.122370858414797,170.9766455607023" stroke="#ff9800" stroke-linecap="round" stroke-linejoin="round" stroke-width="0.5"><title>2024-04-11 33.1km</title><desc>11157061743</desc></polyline><polyline fill="none" points="134.7157394712558,184.92267079794692 134.45893555734074,183.87640703857323 133.82135342643596,180.89293998782523 133.76822158216964,180.78934574647428 133.76822158216964,180.5717974823201 133.63539197156206,179.919149785419 133.706234430545,179.86735216256056 134.01617018860998,179.73267821466288 134.70688416383928,179.5462062882434 135.28247914323583,179.43225104699377 135.48615121282637,179.3390148417311 135.61012551613385,179.16290176696202 135.60127020871732,178.83139394206955 135.39759813906858,177.31887522637408 135.29133445059415,176.7594445676441 135.2204919916112,176.06533170746843 135.20278137683636,175.6094937152593 135.14964953262825,175.37121391879919 134.8042925449554,172.23208237133804 134.64489701227285,170.60549600998638 134.5297780163819,169.68340636927314 134.4855014794739,169.5487183902369 134.36152717622463,168.42976492687012 134.32610594673315,168.27435371046158 134.08701264765114,166.46120459200756 134.1135785697843,166.33687313437986 134.0693020329345,166.22290249255457 134.10472326236777,166.11929270286055 134.0250254960265,165.9638778123408 133.87448527070228,164.96921666048001 133.6531025862787,163.20781270001316 133.69737912312848,163.104199713649 133.63539197156206,162.96950266713247 133.58226012729574,162.63793991541752 133.59997074207058,162.53432632479235 133.40515397978015,161.01119386485516 133.29889029124752,159.8092494497905 133.29889029124752,159.3844207322254 133.22804783226456,158.98031365264615 133.21919252490625,158.8870579353752 133.25461375439772,158.82488740775443 133.21919252490625,158.70054623389296 133.2457584470394,158.53475775587867 133.16606068063993,158.36896899656858 133.1572053732816,158.0270287921012 132.98009922582423,156.2654996864003 132.9181120741414,155.72667267567886 132.86498022987507,155.58160335738648 132.88269084470812,155.37436110043927 132.74986123404233,154.0272757147759 132.7321506193257,153.55061028316413 132.6878740824759,153.35372605664452 132.70558469719253,153.25010262012802 132.62588693079306,152.6076348605784 132.63474223820958,152.3382116394787 132.5461891644518,151.08434764262347 132.4664913980523,150.81492022037128 132.42221486120252,150.43150299214176 132.31595117266988,150.13098573427123 131.94402826298028,148.1102422324766 131.77577742288122,147.41592584167665 131.80234334495617,147.28120716428384 131.77577742288122,147.13612530394312 131.75806680810638,146.82523487757862 131.78463273018133,146.72160451552918 131.6340925048571,146.1516355591084 131.6340925048571,145.94437329578795 131.6783690417069,145.8925576612528 131.820053959731,145.8614682673433 132.51962324231863,145.8614682673433 133.87448527070228,145.69565799929842 134.4855014794739,145.67493169599766 135.264768528461,145.58166327673825 135.74295512674144,145.56093694923766 135.83150820044102,145.52984744974674 136.07060149958124,145.55057378383935 136.80559201166034,145.49875794041873 137.27492330258247,145.43657889197493 137.90365012612892,145.40548935289553 137.9390713556204,145.3847629880256 138.08961158100283,145.40548935289553 138.3552708022762,145.353673432488 138.78918086364865,145.37439980394993 138.83345740049845,145.34331024507992 139.02827416273067,145.3329470566241 139.30278869136237,145.34331024507992 139.39134176512016,145.3122206763437 139.53302668308606,145.3122206763437 139.84296244120924,145.25004150917084 140.02892389608314,145.25004150917084 140.1971747361822,145.21895191073418 140.20603004354052,145.1982255062685 140.40970211318927,145.1671358913518 140.5602423385717,144.89769214746048 140.57795295328833,144.80442298600974 140.25030658044852,143.50900875674415 140.17060881404905,143.33283109432523 140.06434512557462,142.86647692450788 139.94037082232535,142.49339198535017 139.79868590435944,141.83012635223713 139.5064607609529,140.7834011114901 138.93086578161456,138.22354063152306 138.89544455212308,138.171720900551 138.70062778983265,137.24932508817437 138.5412322570919,136.77257776977785 138.5412322570919,136.66893674038874 138.41725795390084,136.11963744818786 138.09846688836114,134.8448366179291 137.6645568269887,133.01033792270755 137.57600375328911,132.62685078905633 137.5671484459308,132.40919525938807 137.46088475739816,132.20190382766305 137.40775291319005,131.56966224273492 137.434318835265,131.52820363513456 137.434318835265,131.4763803508613 137.40775291319005,131.40382770666474 137.36347637628205,130.74048674551887 137.2483573804493,129.75583169622405 137.1598043066333,129.3826966618435 137.16865961404983,129.27904778810625 137.09781715500867,128.98883035620383 136.77017078216886,128.06634778976877 136.4248137945542,127.36152377492544 136.36282664292958,127.17495186038286 136.07060149958124,126.56340808520326 135.7695210488164,125.83784270507749 135.592414901359,125.49578858401946 135.5392830570927,125.31957841751864 134.83971377444686,123.75440356675972 134.5740545532899,123.04954841851577 133.91876180755207,121.46360572541744 133.5202729756711,120.60324694735755 133.21033721754793,119.79471009912959 133.2014819101314,119.69105104447226 133.1483500659233,119.61848964069941 132.93582268891623,119.11055830382975 132.98895453318255,119.0379964685053 133.706234430545,118.60262432361924 133.95418303704355,118.46786588519899 134.00731488125166,118.44713380122266 134.01617018860998,118.46786588519899 134.0693020329345,118.38493752290378 134.30839533201652,118.2812769709708 135.60127020871732,117.6385790915665 135.98204842582345,117.42089014060912 136.98269815917592,116.76782037447992 137.8505182819208,116.1043799468971 139.76326467480976,114.94334834624897 140.08205574029125,114.80858485506178 141.12698201055173,114.23842956400767 141.40149653918343,114.11403160329064 141.87968313740566,114.01036651487811 142.28702727658674,114.0 142.82720102649182,114.09329859443096 143.34966416156385,114.27989551568317 143.57104684598744,114.42502620780579 143.72158707131166,114.57015668402892 144.0138122147182,114.95371476093715 144.42115635395749,115.86595494161884 144.58940719405655,116.40500194943161 145.3952401651186,119.33860943507898 145.4837932388764,119.72214877243823 145.50150385365123,120.00202787821763 145.6254781569005,120.47885709896946 145.78487368964124,121.55689718537178 145.88228207075736,122.46907565124275 145.84686084126588,122.65565656001854 145.88228207075736,122.95625838514388 145.84686084126588,124.40742658859381 145.88228207075736,125.30921310369013 145.83800553390756,126.159165181547 145.90884799289051,126.84326757641975 145.87342676339904,126.90545846548048 145.82915022649104,126.92618875305197 145.51035916100955,126.98837958933291 146.10366475512274,126.89509332003945 146.28077090263832,126.92618875305197 146.865221189335,126.80180696167372 147.13088041055016,126.78107664769777 147.22828879172448,126.74998116846837 148.0164111480699,126.63596432664781 148.12267483654432,126.63596432664781 148.56544020527508,126.5426777206012 148.795678197057,126.51158216546901 148.86652065609815,126.5219473516263 148.90194188553141,126.49085178985843 149.06133741827216,126.50121697823488 149.79632793040946,126.40793024341838 149.98228938522516,126.40793024341838 150.20367206959054,126.3871998458344 150.61101620888803,126.32500862657616 150.98293911857763,126.31464341952233 151.6559424790903,126.2420869392954 151.76220616756473,126.26281736772944 152.3023799174116,126.20062606922875 152.3997882985277,126.22135650645214 152.47063075756887,126.19026084897632 153.0816469664569,126.13843473111046 153.28531903604744,126.08660858576332 154.30367938411655,126.0347824128985 154.36566653574118,126.01405193603568 154.49849614634877,126.0347824128985 154.67560229380615,126.01405193603568 154.86156374873826,125.9414952323641 154.95897212985437,125.95186047906464 155.12722296995344,125.91039948575781 155.2423419658444,125.9000342346626 155.39288219122682,125.93112998460856 155.55227772396756,125.8689384747995 155.5699883386842,125.84820796275744 155.8002263304661,125.82747744627704 155.87992409680737,125.8689384747995 156.04817493690643,125.80674692538742 156.10130678117275,125.81711218637793 156.15443862543907,125.79638166329823 156.3935319245793,125.78601640011766 156.48208499827888,125.75492060393299 156.59720399416983,125.79638166329823 156.6769017605111,125.73419006767654 156.74774421955226,125.75492060393299 156.8540079080267,125.70309425500454 157.00454813340912,125.70309425500454 158.12917216995265,125.5890761904011 158.66934591985773,125.50615387799189 158.8464520673151,125.49578858401946 158.93500514113111,125.51651917090203 159.23608559183776,125.50615387799189 159.3954811245785,125.47505799266946 159.59029788681073,125.630537320234 159.71427219006,126.78107664769777 159.77625934168464,127.17495186038286 159.88252303015906,127.59992070238513 159.92679956706706,128.10780786747637 160.0773397924495,128.9059109314694 160.06848448509118,128.9577355801739 160.1216163292993,129.24795310451736 160.19245878828224,129.32050735079247 160.16589286614908,129.43452105744655 160.2278800177737,129.73510200950113 160.25444593990687,130.0875060851322 160.2633012472652,130.2948020060212 160.43155208736425,131.26908693867153 160.50239454646362,131.3416396829998 160.52896046853857,131.92205969673523 160.56438169803005,132.17081007496017 160.679500693921,132.834141318599 160.69721130863763,133.39382355019188 160.7326325381291,133.4974680558298 160.7326325381291,133.66329903604492 160.7680537676206,134.0364177117517 160.93630460771965,135.18685798648949 160.93630460771965,135.3837788370438 160.9628705298528,135.41487156660878 161.04256829625228,135.71543410877348 161.10455544793513,136.38910541159566 161.25509567325935,137.24932508817437 161.52961020189105,139.49829735515232 161.53846550930757,139.8195748796279 161.66243981249863,140.66940065535164 161.66243981249863,141.00103797642805 161.67129511991516,141.0424925624102 161.71557165670674,141.06321984877286 161.8306906525977,141.8093992286449 161.9192437263555,142.7835692834051 162.08749456651276,143.75772962147312 162.12291579594603,144.29662265556544 162.27345602138666,145.37439980394993 162.36200909508625,145.8614682673433 162.54797054996016,146.43143891695217 162.87561692285817,147.1983032704593 162.96416999655776,147.4677406681003 163.0261571481824,147.56100728642923 163.2121186030563,147.94443578170467 164.0445174962515,149.14652617321553 164.24818956590025,149.34341887910705 164.55812532402342,149.87191839059233 165.1957074550446,150.76310716934677 165.3816689098603,150.9496340243859 165.59419628686737,151.2190610750913 166.293765569455,152.26567449146387 166.40002925798763,152.48328577396023 166.88707116356818,153.1257543512329 167.2235728438245,153.65423340090638 167.47152145026485,154.36922991785832 167.56007452408085,154.79408044231968 167.59549575357232,155.14639411007374 167.6309169830638,155.25001553527545 167.6840488272719,155.799207254051 167.71947005676338,155.88210384915874 167.87001028220402,157.0322868475123 167.89657620433718,157.15663014442543 167.96741866332013,157.2809732830865 167.92314212641213,157.40531626353186 167.94085274118697,157.56074476653885 168.17109073291067,159.09429274172726 168.19765665504383,159.56056944900774 168.3659074951429,160.7314322607781 168.33934157300973,160.81432467143168 168.26849911402678,160.86613239232975 167.84344436007086,161.02155539038358 167.56892983143916,161.10444755489152 167.48037675768137,161.1562551219904 167.00219015945913,161.32203915218997 166.86936054879334,161.4049310618284 166.8073733972269,161.39456957697257 166.35575272107963,161.61216052826057 166.1609359588474,161.6639678261854 165.8775661228574,161.7986666723009 164.97432477062102,162.1716778924456 164.80607393052196,162.21312349571235 164.38987448392436,162.37890573289042 164.30132141016657,162.43071262432204 163.68144989397842,162.6793853209092 163.22982921783114,162.82444410167227 162.48598339833552,163.18709011155443 161.98123087798012,163.47720595047576 161.6978610419901,163.7155147452795 161.57388673874084,163.9331005286731 161.39678059122525,164.16104702018492 161.2373850585427,164.45115996772802 161.07798952580197,164.9070500023663 160.88317276351154,165.71521347347152 160.5820923128049,166.79275437249453 160.51124985376373,167.17610740405507 160.5378157758969,167.43512887142424 160.61751354229636,167.7977577724596 160.61751354229636,167.83920098975796 160.56438169803005,167.8495617913286 160.5909476201632,167.9220873716622 160.65293477178784,168.35723972329288 160.71492192341248,169.08248933734285 160.7769090750371,169.3207844644494 160.87431745615322,170.33612240767252 160.85660684137838,170.49153034575284 160.93630460771965,170.9266712578974 160.9982917594025,171.87983029629686 161.0514236036688,172.2113616961724 161.0957001405186,172.87442112253484 161.25509567325935,173.84828150065732 161.3259381322423,174.17980622423056 161.3702146690921,174.2626872294568 161.3702146690921,174.48024953375716 161.4233465133584,174.63565088329779 161.49418897234136,175.26761382614495 161.60930796829052,175.7648932695738 161.60930796829052,175.85813288360805 161.5561761240242,175.94101246584614 161.4587677429081,175.98245223062258 161.06027891102713,176.05497177670622 160.8654621487367,176.06533170746843 159.9887867186917,176.231090450412 159.8028252637596,176.24145036249683 159.31578335823724,176.34504942310014 158.73133307142416,176.41756870018435 158.71362245670753,176.4486483739238 155.65854141238378,176.94592180958716 155.02981458883733,177.1013192394821 154.4630749168573,177.30851542844175 154.04687547020148,177.51571117826097 153.5863994867541,177.79542474397022 152.24039276578696,178.8624728484283 152.05443131091306,179.06966530482896 151.86846985609736,179.19398056792124 151.43455979472492,179.56692540873337 150.99179442599416,179.9087902630199 150.9652285038028,179.95022834598785 149.45982625015313,181.1933626670434 148.5742955126916,181.8770798062542 147.64448823832208,182.4571996901068 146.75010219344404,182.87156892837083 145.73174184543313,183.2341405713305 144.27947143593337,183.54491519517615 143.98724629258504,183.58635173705989 142.4021462725359,183.90748434126 142.16305297339568,183.96963891699852 141.51661553501617,184.19753869011765 140.80819094507024,184.5290283209397 140.45397865009727,184.78800381308974 139.80754121171776,185.31631169025786 139.53302668308606,185.5856440192947 139.21423561760457,186.0" stroke="#fffc00" stroke-linecap="round" stroke-linejoin="round" stroke-width="0.5"><title>2024-04-10 21.8km</title><desc>11149277964</desc></polyline><polyline fill="none" points="44.27554535015952,262.3248222323964 44.616532721032854,262.02264674563776 45.08151549944887,261.5512513885478 46.28013777267188,259.967832214199 47.530424799071625,258.43274073983775 48.0780711825937,257.85254330847965 48.336394948360976,257.6349685111127 48.46039035596186,257.59870600453723 48.58438576350454,257.6712310061557 49.369690011488274,258.3964784868149 49.679678530374076,258.5777896366635 50.30998851894401,259.07337197635206 50.588978185958695,259.2063327256619 50.92996555683203,259.42390452667314 52.24225028703222,260.0887046815187 53.27554535015952,260.47549571657873 54.23650975886267,260.76558813243173 54.89781859930372,260.92272121638234 55.41446613089647,260.9831569602902 55.70378874859307,261.0556798107573 56.17910447763279,261.0798540839969 56.406429391528945,261.1402897446824 56.7784156142734,261.1282026150875 57.171067738265265,261.188638250198 57.55338691157522,261.2007253733609 57.76004592422396,261.188638250198 57.8220436280244,261.16446399999404 57.88404133182485,261.1765511257545 58.19402985071065,261.1402897446824 58.73134328360902,261.1282026150875 59.53731343278196,261.04359267219115 59.898966704902705,260.9348083677469 60.301951779576484,260.8985469098552 61.00459242251236,260.6930650975992 61.36624569463311,260.5238445037612 61.93455797934439,260.20957702082524 62.420206659066025,259.84695961881516 62.926521239976864,259.3997299026014 63.37083811708726,258.89206161397306 63.711825487960596,258.38439106659644 63.928817451233044,257.9129806785859 64.33180252584862,256.64378918385046 64.44546498276759,256.16028394834575 64.466130884015,255.19326733036723 64.36280137777794,254.49217515705823 64.25947187136626,253.9844850317386 64.0218140068464,253.3680011280303 63.77382319176104,252.872394005557 63.08151549944887,251.73611589078064 62.947187141224276,251.4460005158835 62.56486796785612,250.85367933463567 62.420206659066025,250.52729696140887 62.46153846156085,250.40641436396254 63.1331802525674,249.88661773536296 63.50516647531185,249.5360558810935 64.04247990821023,249.12505095588858 64.20780711824773,249.06460893023177 64.48679678532062,248.8591058033926 64.80711825488834,248.68986765632144 65.29276693455176,248.48436385443347 65.55109070031904,248.3876560548597 66.33639494836098,248.18215170850453 68.96096440876136,247.73487626318092 69.37428243400063,247.68652205597755 69.79793340992182,247.6019021439788 70.0562571756891,247.56563644816924 70.11825487948954,247.57772501472937 70.55223880597623,247.46892786972603 72.1331802525674,247.20297885618493 72.31917336396873,247.1908902499199 73.08381171070505,247.0700041168966 73.3214695751667,247.09418135376472 73.42479908152018,247.04582687495713 73.94144661311293,246.94911785575096 74.27210103330435,246.9249405881419 74.74741676234407,246.81614282057126 74.86107921926305,246.81614282057126 75.25373134331312,246.71943360666046 75.3777267508558,246.71943360666046 76.44202066591242,246.57436963210057 77.26865671644919,246.4172167847937 77.85763490240788,246.33259593119874 78.19862227328122,246.32050723271095 78.25028702639975,246.29632983184274 78.49827784160152,246.24797501481225 78.7669345579925,246.24797501481225 79.39724454650423,246.12708788249438 79.81056257180171,246.12708788249438 79.96555683121551,246.06664426831412 80.04822043626336,246.07873299371568 80.688863375457,245.95784568204544 81.2881745120394,245.9094907214967 81.58783008035971,245.83695824228198 82.17680826637661,245.76442571688676 82.29047072329558,245.77651447431708 82.47646383469692,245.72815943689784 82.9001148105599,245.71607067435252 83.28243398392806,245.63144930059207 83.42709529277636,245.64353807210864 83.71641791047296,245.5830942016837 84.2227324913838,245.55891664454248 85.49368541903095,245.37758480266348 85.59701492538443,245.37758480266348 85.64867967856117,245.36549600293074 85.95866819750518,245.027009090918 86.0,244.9182095129945 86.0,244.51927683947724 85.90700344432844,243.23784729764157 85.91733639495214,242.85099781439203 85.78300803672755,240.83210578210856 85.67967853043228,237.37451905060152 85.67967853043228,236.09300923034607 85.65901262918487,235.89957253487228 85.49368541903095,235.19836176324316 85.36969001154648,234.8477547605362 84.956371986249,234.2553473754815 84.5120551091386,233.56621654512128 84.26406429393683,233.2760549495506 83.97474167624023,232.86499142529647 83.35476463835221,231.90986751498713 83.41676234215265,231.77687494358543 83.3340987371048,231.7164237234465 83.1997703788802,231.4504379742939 82.9104477611836,231.2086322093237 82.66245694604004,230.8217419188586 82.42479908157839,230.5194829660686 81.67049368540756,229.33462014437828 81.53616532724118,228.9839951117974 81.47416762338253,228.75427467822738 81.24684270960279,227.3396702292157 81.05051664751954,225.92504822887713 80.88518943748204,225.24795798349805 80.88518943748204,224.9335932883987 80.65786452352768,223.34966567665106 80.65786452352768,223.1078427308894 80.55453501723241,222.26145838125376 80.35820895526558,221.02814422232768 80.28587830078322,220.83468196718604 79.98622273246292,220.32684198521747 79.39724454650423,219.58926083955885 79.09758897818392,219.10559848114644 78.87026406428777,218.8758581420334 77.94029850751394,217.54577339430398 77.64064293919364,217.02582695546153 76.66934557980858,215.647352824657 76.51435132033657,215.38132958217466 76.39035591273569,215.24831772811012 75.50172215845669,213.99074343669054 75.17106773826526,213.4586885979952 74.67508610791992,212.30992536235135 74.45809414464748,211.69321611210762 74.30309988517547,210.93139419580984 74.21010332950391,209.97608650113398 74.14810562576167,209.64958709855273 74.13777267507976,209.32308676058892 74.07577497127932,208.91193685630424 74.08610792196123,208.75473208912445 74.00344431691337,207.7873133640096 73.94144661311293,207.43662204810244 73.80711825488834,206.23942632199032 73.75545350176981,206.10640379827237 73.63145809416892,205.9854740965311 73.35246842709603,205.79198630677274 73.05281285883393,205.73152130511153 72.44316877151141,205.7678003099427 71.61653272103285,205.92500919749727 70.84156142367283,206.02175302049 70.16991963266628,206.14268268376327 69.6119402985787,206.1789615577145 69.09529276692774,206.27570516513515 66.25373134325491,206.71105038216774 64.72445464978227,206.90453661142237 63.577497129736,207.06174393083347 63.288174512039404,207.13430108203465 62.8438576348708,207.13430108203465 61.634902411024086,207.37615791906865 60.43628013774287,207.54545739956666 60.16762342135189,207.56964301912376 59.940298507455736,207.63010704550834 59.83696900116047,207.6059214387933 59.7336394948652,207.54545739956666 59.64064293913543,207.43662204810244 59.61997703788802,207.364065089394 59.52698048221646,206.81988642653596 59.48564867966343,206.14268268376327 59.278989667014685,205.38082366281742 58.845005740527995,203.4096409709091 58.57634902407881,202.1882161803369 58.51435132033657,201.75285368396726 58.24569460388739,201.2449286692281 58.12169919634471,200.85793666211976 58.09070034447359,200.4709433406024 57.791044776153285,199.22529966293223 57.698048220423516,198.64480087003903 57.68771526979981,198.57223831296142 57.72904707235284,198.47548816497147 57.677382319176104,198.40292550007143 57.57405281282263,197.90707938647392 57.460390355903655,197.53216991675436 57.295063145807944,196.61303180352115 57.243398392689414,196.52837397281837 57.036739379982464,195.87529716421705 56.99540757748764,195.81482689996483 57.005740528111346,195.7301684761187 56.7784156142734,194.83520414785744 56.79908151552081,194.6658857813527 56.74741676234407,194.56913231611543 56.334098737104796,194.29096564578504 56.14810562576167,194.20630608958163 56.075774971279316,194.13374070559803 55.99311136623146,194.15792917205545 55.72445464984048,194.13374070559803 52.84156142367283,194.38771934725082 51.684270952944644,194.42400196414383 51.36394948331872,194.4844729665856 51.0332950631273,194.5812265037457 50.85763490240788,194.59332069010998 48.956371986248996,194.95614568408928 47.52009184850613,195.24640484734118 46.383467278967146,195.37944005006284 45.8668197474326,195.3915341516913 45.47416762338253,195.42781644886418 45.17451205512043,195.3915341516913 44.92652123991866,195.40362825201737 44.00688863376854,195.24640484734118 42.353616532695014,194.84729830724973 41.268656716449186,194.6175090589968 40.679678530432284,194.5207555526722 39.625717566057574,194.4844729665856 39.18140068888897,194.5207555526722 38.80941446614452,194.5812265037457 36.87715269805631,194.79892166193167 35.926521239976864,194.94405153625848 34.5005740528577,195.0891812257105 34.18025258323178,195.13755774781748 33.91159586678259,195.2222166120191 33.49827784154331,195.27059307757736 32.52698048221646,195.47619282714732 31.039035591238644,195.71807441044075 30.429391504032537,195.85110906237242 30.181400688830763,195.92367335246672 29.334098737046588,196.06880179407017 28.817451205512043,196.11717790018156 28.497129735944327,196.11717790018156 28.125143513199873,196.06880179407017 27.670493685407564,195.95995548021165 26.93685419060057,195.85110906237242 26.802525832375977,195.80273284328723 26.616532721032854,195.80273284328723 25.882893226167653,195.88739121319668 24.19862227322301,196.15345996628457 22.958668197505176,196.31068211921956 22.47301951778354,196.3348701234645 21.625717565999366,196.44371607918583 21.16073478758335,196.45581006781867 20.344431687670294,196.52837397281837 19.652123995416332,196.55256193083915 19.362801377719734,196.60093783158663 17.36854190583108,196.68559560838185 16.58323765784735,196.77025332229096 14.826636050536763,196.8670049182765 14.392652123991866,196.92747462408443 14.299655568262096,196.96375643213833 14.134328358166385,197.14516529916727 14.010332950623706,197.37494944938953 14.0,197.50798216662952 14.061997703742236,198.35455036449275 14.154994259413797,199.00761296221026 14.23765786451986,199.35833021977305 14.340987370815128,200.3741948048846 14.681974741630256,203.07102946933446 14.681974741630256,203.32498818985187 14.826636050536763,204.59477330261143 14.867967853031587,204.7277975908437 14.888633754337206,205.1268695239196 15.03329506306909,206.09431083384698 15.291618828952778,208.40404375016806 15.322617680823896,208.46450733386155 15.332950631447602,208.70636134789675 15.456946038990282,209.444012920736 15.560275545343757,210.48397260156344 15.642939150391612,213.64007120837778 15.6222732491442,214.01492768854223 15.694603903510142,214.70417670880852 15.715269804815762,216.33659197388624 15.694603903510142,216.43332695952267 15.756601607310586,216.7356232606253 15.74626865668688,217.58204863873834 15.797933409863617,218.80330846505967 15.777267508616205,219.26278897273733 15.839265212358441,219.87945726960606 15.87026406422956,220.64121938365133 15.911595866840798,221.7898986606524 15.890929965593386,222.40655328745197 15.952927669335622,223.22875426789687 16.004592422454152,225.42932183635276 15.973593570641242,225.62277629478194 16.01492537307786,225.82832129713643 16.025258323759772,226.3724092206612 16.004592422454152,226.86813151261595 16.066590126254596,227.55730282530567 16.118254879431333,229.12908146293194 16.107921928807627,230.09631908600568 16.12858783005504,230.27767522690556 16.107921928807627,230.60411555361497 16.211251435102895,231.52297960376745 16.190585533797275,232.5506477304516 16.2215843857266,233.95309752401226 16.262916188279632,234.55759642588237 16.24225028703222,234.89611441121087 16.262916188279632,235.53687784647627 16.335246842703782,235.80285406408075 16.304247990774456,235.98420112951135 16.324913892080076,236.27435583435727 16.262916188279632,236.40734316069575 16.335246842703782,236.5040611187942 16.324913892080076,237.0601877860754 16.355912743951194,237.2415328521456 16.43857634899905,238.2449703385355 16.448909299622755,238.86153598113015 16.53157290472882,239.30884622374288 16.63490241096588,240.40898016778374 16.738231917319354,241.96849252001994 16.71756601607194,242.28281025709293 16.758897818566766,242.54877074265823 16.84156142361462,243.67305139794917 16.882893226167653,243.79394113110902 16.944890929968096,244.22914310961642 17.0998851894401,246.52601493291877 17.285878300783224,248.5085407915467 17.285878300783224,249.14922775718878 17.44087256025523,250.29761991675332 17.544202066550497,250.6723559092352 17.926521239918657,253.4888805873852 17.9885189437191,253.7548149471404 18.029850746272132,254.1537153245299 18.029850746272132,254.58887778194912 18.071182548766956,254.69766813692695 18.071182548766956,254.89107295633585 18.15384615387302,255.5800749610935 18.164179104438517,255.60425039448455 18.18484500568593,255.5800749610935 18.246842709486373,256.1361086328252 18.319173363910522,256.3053357341705 18.556831228430383,257.34486813587137 18.908151549927425,258.7711878789996 18.99081515497528,258.9887605097756 19.052812858775724,259.3997299026014 19.197474167565815,261.2128124952724 19.37313432834344,263.73899287504173 19.455797933449503,265.40696649224265 19.53846153843915,265.4794865312797 19.79678530426463,265.5640931852249 19.869115958630573,265.66078642720095 19.92078071180731,265.81791277069715 19.941446613054723,265.854172665393 19.982778415607754,265.8662592943947 20.561423650942743,265.842086035118 21.057405281288084,265.7574795872788 21.66704936849419,265.76956622650323 23.702640642935876,265.63661312437034 24.27095292764716,265.63661312437034 25.190585533855483,265.5640931852249 25.924225028720684,265.53991986189794 26.8438576348708,265.41905316861084 27.257175660168286,265.3102730351893 27.908151549927425,265.0443656058487 28.879448909312487,264.53672242932953 29.85074626863934,264.11368472383765 31.814006888656877,263.0863009099994 32.54764638346387,262.7357796102078 34.15958668192616,262.0709948773292 34.44890929968096,261.9622115523016 35.719862227269914,261.63586095501523 36.74282433988992,261.33368364379567 37.3008036739775,261.2128124952724 38.40642939147074,260.94689551780175" stroke="#ffe700" stroke-linecap="round" stroke-linejoin="round" stroke-width="0.5"><title>2024-04-09 24.2km</title><desc>11141578800</desc></polyline><polyline fill="none" points="179.62377999955788,194.0 179.31235277750238,194.03780466461103 178.57785461227468,194.2268273269001 178.43389297189424,194.39179165951282 178.648366436144,195.17536078561534 178.65424242145673,195.26127730177177 178.15478366911702,195.43654628929653 178.0548919186258,195.45716610793897 177.54368119564606,195.6668001870239 176.9472686855006,195.9348549052229 176.6975393093162,196.08950085076503 176.55651566160668,196.24070950712485 176.45662391113,196.39879053087134 176.10406479184167,197.27165884004717 176.00711103402136,197.46066266515118 175.8249554890499,197.67715660318572 175.56347414222546,197.85928530554156 175.38719458256674,197.9348855988028 175.19916305228253,197.98986751964185 174.732022219192,198.0860856569816 174.51461076228588,198.11357650097125 174.27957134941244,198.1788671621216 173.95051617140416,198.22353964407375 173.61852300072496,198.31975708865866 173.48043734567182,198.34381140523692 173.22483198416012,198.43659217360982 173.15725815297628,198.45377376828037 172.83407896028075,198.48813693033662 172.70774527585309,198.59122619817936 172.57553560612723,198.6599521948192 172.03788294918195,198.80771259485482 171.4972922995803,198.88674695128793 170.88031384081114,198.9211096549334 170.50425078019907,198.91423711711468 170.32797122056945,199.0482513420793 170.28977731596387,199.96228232486828 170.3397231912095,200.44334092530335 170.3338472058822,201.85898630624797 170.26333538201288,202.4293502513574 170.21632749942364,202.63550342881717 170.0870558223687,202.99970417668737 169.7256827250676,203.559740751949 169.28792181861354,204.14381768727617 168.85603689745767,204.5835863288994 168.17148460749013,205.20887211195077 167.92175523130572,205.38752298142936 167.64558392119943,205.5524306040279 167.34003268445667,205.652061886889 167.30183877986565,205.68641743079934 166.76712411557673,205.71390183975382 166.64079043117817,205.86850120674353 166.66135637978732,206.35290779102797 166.69955028437835,206.52811690393355 166.72011623300205,206.80638825818824 166.70542626970564,207.33887617876826 166.74362017429667,208.20114455574003 166.825883968806,208.9946860632117 166.9698456091719,209.68858958978672 167.2254509706836,210.68476180942525 167.34884666244034,211.306495196568 167.4046685229987,211.73586213748786 167.43111045693513,212.2270509597438 167.40760651565506,212.4709251689419 167.36353662573674,212.59457899825793 167.40760651565506,212.70105830753891 167.36059863308037,213.9169585830532 167.33415669912938,214.0028255267316 167.26952086058736,214.07151891832473 167.20488502204535,214.09556157108818 166.95221765320457,214.12647352705972 166.2000915320241,214.28103286588885 165.73001270629175,214.4321568420237 165.036646438326,214.80309453139853 164.68702531169401,215.02290746066865 164.64589341444662,215.02290746066865 164.54306367129902,215.10190236900235 163.66754185834725,215.62738535082462 163.1210752234474,215.915882198904 162.65687238301325,216.08760529750725 162.02226596827677,216.19407316303477 161.96350611506205,216.2112453667396 161.9311881957983,216.24902418297643 161.71671473154856,220.9195214103056 161.73434268750134,221.00536985916915 161.68439681227028,221.89474645296286 161.64326491502288,223.3163249373356 161.60507101043186,223.62192185909953 161.61094699575915,223.92751590953412 161.55806312784262,225.2357006835773 161.57275309115357,225.31123730533727 161.5492491498735,225.54127957292076 161.52574520857888,225.56531374582482 161.45229539206775,225.54127957292076 160.23596643046767,225.54127957292076 160.17133059192565,225.55501338817703 160.15957862128562,225.62711582316115 160.09200479010178,225.60994859123093 159.73063169280067,225.63398271340702 158.93443568171642,225.6168154850966 158.81103998993058,225.637416157977 158.82572995324153,226.0116594440551 158.80222601196147,226.52323275079107 158.7258382027794,227.13779675756086 158.60538050367904,227.7489159341494 158.4614188632986,228.25359558893615 158.25575937704707,228.8131972103365 157.90907624305692,229.54787429804128 157.62702894762333,230.00789730069664 157.21864796774753,230.58120044798488 156.29611827223562,231.6213594154251 155.86717134375067,232.15687384130433 155.4852322978404,232.71640834799473 155.1150452225702,233.34458593435193 154.91819971428777,233.55054315982125 154.74779613995634,233.6500886849899 154.7213542060199,233.69471244229862 154.30415924817498,234.01050959182612 154.09556176923797,234.2473554435237 153.9868560407922,234.46017198536356 153.92222020225017,234.69701456557232 153.79588651783706,236.34799975604255 153.60785498755286,236.46126594140878 153.3845675453049,236.6877971300746 153.08489229390398,237.06877784774042 152.30044825345976,238.14991507051673 152.13004467912833,238.41075550184541 152.15061062776658,238.47253319272568 152.0007730020443,238.64070520192035 151.2956547634385,239.70463044006465 150.81382396705158,240.37728781815167 150.1468996330368,241.37595248613798 149.04221439255343,242.96139845135622 147.69073776854202,245.13697144194157 147.5291481722088,245.3668736654472 147.3264266785991,245.57275487691732 146.70651022715901,246.12176508136326 146.50672672623477,246.27274126599514 146.29225326198502,246.16637175417054 145.39322750775318,245.8884368746949 144.8085669682332,245.63795032269263 144.76155908565852,245.63795032269263 144.6352254012454,245.76834082293135 144.52064368747233,245.84039850710542 143.73619964701356,246.13549021797007 143.4570903442509,246.29332887334022 143.03401940106414,246.64674743795695 142.67264630379213,246.98643739730687 142.07623379363213,247.64178882893975 141.55620909265417,248.26281650609235 140.44270987418713,249.10341523122406 140.28993425582303,249.18232746781723 140.160662578739,249.2029132372445 139.7258396649413,249.13429395524872 137.19916597659176,248.17703990698283 136.93768462976732,248.1392981318495 136.4764197820041,248.17703990698283 136.41765992880391,248.15645348959515 136.32364416363998,247.62463320027018 136.28838825171988,247.06192357408872 136.16499255996314,246.79772119036352 135.81243344066024,246.4374417605577 135.73310763880727,246.252153645637 135.73310763880727,246.0702957676367 135.79480548469292,245.8335358773802 135.75367358744552,245.68942031932966 135.58914599842683,245.45952037158713 135.5450761085085,245.339422738969 135.5362621305394,245.20559914118348 135.6038359617378,244.8967733562895 135.5773940277868,244.7149079135488 135.27478078371496,244.05949761379088 135.17195104058192,243.9016481369872 135.0514933414961,243.8021339433435 134.7136241854896,243.65457785534454 134.58141451576375,243.51045265910216 134.37869302215404,242.951103596577 134.2699872936937,242.82070182117604 134.1289636459842,242.77265893024014 133.83810237255238,242.76236401583083 133.6471328495827,242.64225644055114 133.54136511380784,242.60793990913953 133.22993789175234,242.6045082540113 133.121232163292,242.5804866579856 132.99196048620797,242.50155843202083 132.76279705867637,242.2510458394463 132.6717192861979,242.19613871244655 132.55713757241028,242.17211681529443 132.01948491547955,242.18241191623747 131.85789531913179,242.26134091546555 131.67867776680214,242.42263001483298 131.5494060897472,242.46037841212456 131.47595627320698,242.46037841212456 131.1674670438224,242.34370140640385 131.09401722729672,242.33340635642526 130.9676835428836,242.35742813464822 130.85897781442327,242.41233498979273 130.71795416671375,242.5804866579856 130.64156635751715,242.73147925305238 130.52698464375862,243.05748360569487 130.40946493731462,243.19131602699053 130.024587898748,243.51388421880984 129.8189284124819,243.61339929290625 129.37822951335693,243.68203020138753 129.26070980691293,243.74036635992888 129.15200407846714,243.82272311179986 129.05505032064684,243.94282633509283 128.58790948757087,244.70461361284106 128.5173976637161,244.87618486655265 128.47920375911053,245.04432381868537 128.48507974443783,245.49383389961076 128.46451379581413,245.67226366282557 128.39400197197392,245.81981061359693 128.19715646367695,246.0702957676367 128.12370664716582,246.22470346494447 128.07669876457658,246.90065743872037 128.02969088201644,247.04133645230831 127.89160522694874,247.2197577423467 127.81227942511032,247.38102229866126 127.78583749115933,247.69668677997106 127.65950380673166,248.02950362841875 127.62130990214064,248.3211444645458 127.45090632782376,248.64023086033922 127.36276654798712,248.89412533064024 127.27462676816504,249.03822671776288 127.08659523786628,249.22006803516706 126.81336192041636,249.36416798129721 126.68996622865961,249.51169821854273 126.63708236075763,249.74156958301683 126.56657053690287,250.58213017390517 126.53131462495367,250.68162366638353 126.47549276440986,250.76396287879106 125.49420321568323,251.57019001254957 125.32673763402272,251.68683398939174 124.26318429077219,252.25632506005059 123.65795780264307,252.58566475385305 123.20844492553442,252.74690276588808 122.63259836399811,252.91157055092845 122.45338081166847,252.90470940982414 122.20365143549861,252.79150037311774 122.10375968505105,252.78120862302603 121.73357260976627,253.01791805344328 121.05489630511147,253.23061201789096 120.95500455464935,253.28207002664203 120.85511280417268,253.3712637161152 120.51724364816619,253.80350660121258 120.43791784632776,253.92700351594976 120.37622000044212,254.13626110934638 120.38503397842578,254.366099869334 120.45554580228054,254.56506345786693 120.59363145734824,254.77774733077968 120.6435773325793,254.89437983345488 120.6435773325793,255.25799613491472 121.04902031978418,255.6970745668841 121.18416798218095,255.8994602912062 121.30462568128132,256.167019151555 121.44564932899084,256.657538028041 121.46621527762909,256.8290463840458 121.4338973583508,257.0691565673078 121.24292783541023,257.7894765117453 121.2311758647702,257.9060982446281 121.24880382073752,258.11876033118097 121.35750954916875,258.69156905481213 121.36632352716697,258.9385254014451 121.43683535100718,259.25064810934055 121.44858732166176,259.40499339985763 120.9491285693075,261.92586312070125 120.95206656197843,262.0801957560725 121.00201243720949,262.25853478115096 121.25174181337934,262.67694174489225 121.26643177670485,263.1056318401679 121.34575757852872,263.30797160877046 121.73651060242264,263.8772598204632 122.06556578044547,264.20648220593284 122.50626467957045,264.7929013536632 122.59440445940709,264.8340531788963 122.76774602638034,264.64886955669135 122.8382578502642,264.61114683816777 123.14968507230515,264.54941865925866 123.40529043380229,264.40881514922876 123.76372553843248,264.3539453224621 123.96644703202765,264.40881514922876 124.13978859901545,264.5048371241028 124.3483860779379,264.85119975743874 124.48353374034923,264.9540790394931 124.8948527128523,265.15640734817134 124.9976824559999,265.1838415985512 125.27972975144803,265.21470510266226 125.38549748722289,265.2009879933248 125.45307131843583,265.17355375736224 125.77037452580407,264.8717756397891 125.89377021756081,264.78947203253847 126.22576338824001,264.71402687690716 126.69584221398691,264.5699947318644 126.95438556814042,264.55970669717135 127.27756476083596,264.5802827632979 127.38627048928174,264.6077174979582 127.50379019572574,264.6865922316174 127.64481384343526,264.79633067440955 127.75058157922467,264.9335032090239 128.05907080860925,265.0672458751942 128.1413346031186,265.1255437889304 128.20890843431698,265.25242712360705 128.2324123756116,265.46161208489866 128.23828836092434,265.60564029532543 128.69955320868758,265.8079645650723 128.96397254816839,265.8971240146566 129.14906608579622,265.9451328481664 129.49281122711545,265.98628322068544 130.63275237954804,266.0 130.9236136529653,265.9554204461674 130.92948963827803,265.9759956324233 131.2144749263971,265.8079645650723 131.37900251540123,265.643361864466 131.48477025119064,265.4821875824455 131.99010498885764,264.29907540345084 132.14581859989266,264.0007186042203 132.39554797607707,263.6955002055547 132.99783647154982,263.1742217327992 133.1976199724886,262.92729744462486 133.2593178183597,262.82098224513175 133.42972139269114,262.41286584308546 133.84985434319242,260.9484061445255 133.96737404963642,260.6294401628329 134.184785506528,260.1527002476396 135.2659668057313,258.1633505928512 135.260090820404,258.10847026214105 135.85944132323493,257.072586699971 136.02103091956815,256.842767013557 136.2355043838179,256.602655163646 137.09633623344416,255.74852868365997 137.32256166833395,255.46381488597035 137.41070144817058,255.3094509444636 137.7162526848988,254.65082325094772 137.74269461884978,254.5444810739682 138.01005195098696,253.94072536650128 138.13050965008733,253.59767737054426 138.40080497489544,253.40213839793432 138.87969777861144,252.993904131592 139.0177834336646,252.85668138165784 139.45260634747683,252.47931584141043 140.00788696038944,252.02990209073687 140.59254749989486,251.4947142757337 140.81583494211372,251.3197471228741 141.21833993664768,251.01441003819127 142.13793163950322,250.37284976752926 142.5580645900045,250.09495075786617 143.07808929098246,249.68667507615828 143.79202150758647,249.01077888362124 144.33261215717357,248.37261022354141 144.74980711501848,247.93343313450896" stroke="red" stroke-linecap="round" stroke-linejoin="round" stroke-width="0.5"><title>2024-04-06 50.3km</title><desc>11117092814</desc></polyline></svg>